<svg width="391" height="102" viewBox="0 0 391 102" fill="none" xmlns="http://www.w3.org/2000/svg">
<g filter="url(#filter0_f)">
<path d="M36.025 20H371L350.839 82H186.971H20L36.025 20Z" fill="white" fill-opacity="0.89"/>
<path d="M21.2913 81L36.7994 21H369.623L350.113 81H186.971H21.2913Z" stroke="white" stroke-opacity="0.89" stroke-width="2"/>
</g>
<path d="M45.9214 31.0234H362.9L343.823 75.1179H188.757H30.7573L45.9214 31.0234Z" fill="#6F5347" fill-opacity="0.98"/>
<g filter="url(#filter1_d)">
<path d="M93.8658 56.9479L95.8458 56.9554L97.1777 51.7244L97.0677 51.724C96.1429 52.0725 95.1525 52.2447 94.0966 52.2407C91.3979 52.2305 90.0509 51.2207 90.0555 49.2114C90.0562 48.9034 90.079 48.5735 90.1238 48.2216C90.1832 47.8699 90.3017 47.3716 90.4792 46.727L91.234 43.7378L89.738 43.7322L90.0045 42.6552L95.4385 42.6757L95.172 43.7527L93.676 43.7471L92.8768 46.9121C92.7141 47.5128 92.603 47.989 92.5435 48.3408C92.484 48.6779 92.454 48.9711 92.4535 49.2205C92.4507 50.4378 93.2193 51.0494 94.7593 51.0552C95.7566 51.059 96.659 50.8791 97.4665 50.5155L99.176 43.7679L97.68 43.7622L97.9465 42.6852L103.446 42.7061L103.18 43.7831L101.684 43.7774L98.3537 56.9649L99.8497 56.9705L99.5833 58.0475L93.5993 58.0249L93.8658 56.9479ZM107.608 58.342C106.919 58.3393 106.413 58.1541 106.092 57.7862C105.784 57.4037 105.632 56.9118 105.633 56.3105C105.633 56.0905 105.649 55.8632 105.679 55.6286C105.723 55.3941 105.782 55.1523 105.856 54.9033L107.697 48.2662L105.783 48.259L106.028 47.2699L110.628 46.3853L108.055 55.5936C108.01 55.7695 107.988 55.9307 107.987 56.0774C107.987 56.488 108.177 56.6941 108.558 56.6955C108.91 56.6969 109.306 56.515 109.747 56.15C110.203 55.7704 110.651 55.2661 111.093 54.6371C111.534 54.0081 111.947 53.2764 112.33 52.4418C112.728 51.5926 113.045 50.6992 113.282 49.7614L114.059 46.6623L116.435 46.6713L113.882 56.7157L114.278 56.8932L116.571 54.3939L117.23 54.8364L115.796 56.657C115.267 57.359 114.804 57.8192 114.407 58.0377C114.011 58.2562 113.636 58.3648 113.284 58.3635C112.727 58.3613 112.331 58.2132 112.097 57.919C111.878 57.6101 111.769 57.2724 111.77 56.9057C111.77 56.715 111.793 56.5098 111.837 56.29C111.882 56.0701 111.926 55.8796 111.97 55.7185L112.348 54.2459L112.128 54.1791C111.833 54.7206 111.531 55.2475 111.222 55.7596C110.913 56.2571 110.575 56.6959 110.207 57.0758C109.854 57.4558 109.465 57.7623 109.039 57.9954C108.613 58.2284 108.136 58.344 107.608 58.342ZM134.755 58.4448C134.462 58.4437 134.213 58.3988 134.008 58.31C133.802 58.2212 133.634 58.1106 133.502 57.9781C133.371 57.8309 133.276 57.6692 133.217 57.493C133.159 57.3168 133.13 57.1333 133.131 56.9427C133.131 56.7813 133.146 56.6054 133.176 56.4148C133.22 56.2097 133.265 56.0265 133.309 55.8653L135.15 49.2283C135.195 49.0524 135.217 48.8912 135.217 48.7445C135.218 48.3338 135.028 48.1278 134.647 48.1263C134.28 48.125 133.869 48.3141 133.414 48.6937C132.973 49.0587 132.532 49.5557 132.09 50.1847C131.649 50.8137 131.236 51.5528 130.853 52.402C130.47 53.2365 130.16 54.1227 129.923 55.0605L129.146 58.1596L126.77 58.1506L128.99 49.2489C129.049 49.0291 129.079 48.8533 129.08 48.7213C129.08 48.3106 128.898 48.1046 128.531 48.1032C128.179 48.1018 127.782 48.291 127.342 48.6707C126.901 49.0357 126.46 49.5327 126.018 50.1617C125.577 50.7907 125.157 51.5297 124.759 52.3789C124.376 53.2135 124.066 54.0996 123.829 55.0374L123.052 58.1365L120.676 58.1275L123.14 48.3247L121.248 48.3176L121.493 47.3285L125.807 46.4428L124.763 50.5529L124.983 50.6197C125.278 50.0782 125.58 49.5587 125.889 49.0612C126.198 48.5637 126.529 48.1249 126.882 47.7449C127.249 47.3503 127.639 47.0364 128.05 46.8033C128.476 46.5703 128.945 46.4547 129.459 46.4567C130.075 46.459 130.522 46.644 130.799 47.0118C131.092 47.3649 131.238 47.8494 131.236 48.4654C131.235 48.8028 131.191 49.1546 131.102 49.5209L130.857 50.554L131.077 50.6208C131.372 50.0793 131.674 49.5598 131.983 49.0623C132.292 48.5648 132.623 48.126 132.976 47.746C133.343 47.3661 133.733 47.0595 134.144 46.8264C134.57 46.5934 135.047 46.4778 135.575 46.4798C136.279 46.4825 136.784 46.6751 137.091 47.0576C137.413 47.4255 137.573 47.9101 137.572 48.5114C137.572 48.7314 137.549 48.9587 137.504 49.1932C137.475 49.4131 137.423 49.6475 137.349 49.8966L135.441 56.7974L135.837 56.9749L138.13 54.4756L138.789 54.9181L137.355 56.7387C136.84 57.3967 136.385 57.8497 135.988 58.0975C135.592 58.3307 135.181 58.4464 134.755 58.4448ZM144.705 58.4825C143.884 58.4794 143.291 58.1912 142.925 57.6178C142.575 57.0444 142.401 56.2298 142.403 55.1738C142.405 54.2644 142.539 53.3043 142.806 52.2933C143.072 51.2676 143.448 50.3304 143.934 49.4815C144.435 48.6181 145.038 47.909 145.743 47.3544C146.463 46.7998 147.27 46.5242 148.165 46.5276C148.81 46.53 149.338 46.6933 149.748 47.0176C150.158 47.3418 150.442 47.8562 150.602 48.5608L150.822 48.5616L151.948 46.8059L153.136 46.8104L150.561 56.8547L150.957 57.0322L153.25 54.5329L153.909 54.9754L152.475 56.7959C151.96 57.4393 151.519 57.885 151.152 58.1329C150.8 58.3809 150.433 58.5042 150.051 58.5028C149.494 58.5007 149.098 58.3525 148.864 58.0583C148.645 57.7641 148.536 57.4264 148.537 57.045C148.537 56.8544 148.552 56.6491 148.582 56.4292C148.627 56.2094 148.671 56.0189 148.715 55.8577L149.048 54.5389L148.829 54.4721C148.563 55.0431 148.291 55.5774 148.011 56.075C147.731 56.558 147.422 56.9821 147.084 57.3475C146.761 57.6983 146.401 57.9756 146.004 58.1794C145.608 58.3833 145.175 58.4843 144.705 58.4825ZM145.633 56.814C146.044 56.8156 146.47 56.5972 146.911 56.1589C147.352 55.7059 147.764 55.1648 148.146 54.5355C148.544 53.8917 148.89 53.2183 149.185 52.5155C149.48 51.8126 149.694 51.2047 149.827 50.6919L149.938 50.2523C150.116 49.549 150.117 48.977 149.942 48.5363C149.767 48.0956 149.386 47.8742 148.8 47.872C148.125 47.8694 147.486 48.197 146.883 48.8547C146.295 49.4978 145.816 50.486 145.447 51.8193C145.373 52.0683 145.299 52.3541 145.225 52.6765C145.165 52.9842 145.106 53.2993 145.047 53.6218C145.002 53.9443 144.957 54.2521 144.912 54.5453C144.882 54.8385 144.867 55.0951 144.867 55.3151C144.866 55.7844 144.916 56.1513 145.018 56.4157C145.12 56.6801 145.325 56.8129 145.633 56.814ZM171.445 58.5838C171.152 58.5827 170.903 58.5378 170.697 58.449C170.492 58.3602 170.324 58.2496 170.192 58.1171C170.061 57.9699 169.966 57.8082 169.907 57.632C169.849 57.4558 169.82 57.2723 169.821 57.0817C169.821 56.9203 169.836 56.7444 169.866 56.5538C169.91 56.3487 169.955 56.1655 169.999 56.0043L171.84 49.3673C171.885 49.1914 171.907 49.0302 171.907 48.8835C171.908 48.4729 171.718 48.2668 171.337 48.2654C170.97 48.264 170.559 48.4531 170.103 48.8327C169.663 49.1977 169.222 49.6947 168.78 50.3237C168.339 50.9527 167.926 51.6918 167.543 52.541C167.16 53.3756 166.85 54.2617 166.613 55.1995L165.836 58.2986L163.46 58.2896L165.68 49.3879C165.739 49.1682 165.769 48.9923 165.769 48.8603C165.77 48.4496 165.587 48.2436 165.221 48.2422C164.869 48.2409 164.472 48.43 164.032 48.8097C163.591 49.1747 163.15 49.6717 162.708 50.3007C162.267 50.9297 161.847 51.6688 161.449 52.5179C161.066 53.3525 160.756 54.2386 160.519 55.1764L159.742 58.2755L157.366 58.2665L159.83 48.4638L157.938 48.4566L158.183 47.4675L162.497 46.5819L161.453 50.6919L161.673 50.7588C161.968 50.2172 162.269 49.6977 162.579 49.2002C162.888 48.7027 163.219 48.2639 163.572 47.8839C163.939 47.4893 164.329 47.1755 164.74 46.9424C165.166 46.7093 165.635 46.5938 166.149 46.5957C166.765 46.598 167.212 46.7831 167.489 47.1508C167.782 47.5039 167.927 47.9884 167.926 48.6044C167.925 48.9418 167.88 49.2936 167.792 49.6599L167.547 50.693L167.767 50.7599C168.062 50.2183 168.363 49.6988 168.673 49.2013C168.982 48.7038 169.313 48.265 169.666 47.885C170.033 47.5051 170.423 47.1986 170.834 46.9654C171.26 46.7324 171.737 46.6169 172.265 46.6189C172.969 46.6215 173.474 46.8141 173.781 47.1966C174.103 47.5645 174.263 48.0491 174.262 48.6504C174.261 48.8704 174.239 49.0977 174.194 49.3322C174.165 49.5521 174.113 49.7866 174.039 50.0356L172.131 56.9364L172.527 57.1139L174.82 54.6146L175.479 55.0571L174.045 56.8777C173.53 57.5357 173.075 57.9887 172.678 58.2365C172.281 58.4697 171.87 58.5854 171.445 58.5838ZM183.199 58.6284C182.055 58.624 181.169 58.342 180.539 57.7823C179.91 57.2079 179.596 56.4074 179.599 55.3807C179.599 55.058 179.622 54.6988 179.667 54.303C179.727 53.9072 179.838 53.4309 180 52.8742L181.22 48.5448L179.328 48.5376L179.573 47.5486L184.129 46.6638L182.665 51.9383L182.862 52.0271C183.245 51.6472 183.641 51.37 184.052 51.1956C184.463 51.0211 184.926 50.9349 185.439 50.9368C186.26 50.9399 186.927 51.1551 187.439 51.5824C187.966 52.0097 188.229 52.6414 188.227 53.4774C188.225 54.1667 188.099 54.8263 187.849 55.456C187.612 56.0711 187.274 56.6125 186.833 57.0801C186.392 57.5478 185.863 57.9271 185.246 58.2181C184.63 58.4945 183.947 58.6312 183.199 58.6284ZM183.312 57.6168C183.766 57.6185 184.199 57.4442 184.611 57.0937C185.022 56.7286 185.354 56.0845 185.605 55.1615C185.694 54.7805 185.753 54.4507 185.783 54.1721C185.828 53.8936 185.851 53.6151 185.851 53.3364C185.852 52.8817 185.736 52.5513 185.502 52.3451C185.282 52.1389 184.967 52.035 184.556 52.0335C183.999 52.0314 183.478 52.2347 182.993 52.6436C182.523 53.0378 182.206 53.5572 182.043 54.202C181.969 54.5097 181.91 54.8028 181.865 55.0813C181.835 55.3452 181.82 55.5798 181.82 55.7851C181.817 57.0025 182.314 57.613 183.312 57.6168ZM203.701 58.7061C202.469 58.7014 201.553 58.3313 200.954 57.5956C200.354 56.8454 200.056 55.8469 200.059 54.6002C200.061 53.7349 200.195 52.8701 200.461 52.0057C200.727 51.1267 201.095 50.3361 201.566 49.6339C202.052 48.9317 202.632 48.3619 203.308 47.9245C203.984 47.4871 204.739 47.2699 205.575 47.2731C206.837 47.2779 207.598 47.8528 207.859 48.9978L208.036 48.9324C208.125 48.4194 208.199 47.855 208.259 47.2393C208.334 46.6235 208.372 46.015 208.374 45.4137C208.376 44.4897 208.209 43.8217 207.872 43.4098C207.551 42.9832 207.104 42.7689 206.532 42.7667C205.989 42.7646 205.483 42.9167 205.013 43.2229C204.543 43.5145 204.05 44.026 203.535 44.7573L202.81 44.3146C203.399 43.3635 204.017 42.6985 204.663 42.3196C205.309 41.926 206.05 41.7309 206.886 41.734C207.443 41.7361 207.942 41.8334 208.381 42.0257C208.836 42.2034 209.224 42.4982 209.545 42.9101C209.867 43.322 210.108 43.8656 210.268 44.5409C210.442 45.2015 210.528 46.0085 210.526 46.9618C210.524 47.9738 210.448 48.9856 210.299 49.997C210.15 51.0084 209.935 51.9683 209.655 52.8766C209.374 53.7849 209.042 54.6123 208.659 55.3588C208.276 56.0907 207.857 56.6831 207.401 57.1361C206.828 57.7059 206.233 58.1143 205.616 58.3613C204.999 58.5936 204.361 58.7086 203.701 58.7061ZM203.77 57.6723C204.151 57.6738 204.488 57.5944 204.782 57.4341C205.091 57.2593 205.362 57.0257 205.598 56.7332C205.848 56.4408 206.061 56.097 206.238 55.7017C206.415 55.2917 206.563 54.8522 206.681 54.3833C206.859 53.7093 207.007 53.1379 207.125 52.669C207.243 52.2001 207.332 51.8118 207.392 51.504C207.466 51.1816 207.518 50.9178 207.548 50.7126C207.577 50.5074 207.592 50.3241 207.593 50.1628C207.594 49.6494 207.478 49.2163 207.244 48.8634C207.025 48.5106 206.651 48.3332 206.123 48.3312C205.742 48.3297 205.397 48.4164 205.088 48.5913C204.795 48.7515 204.523 48.9778 204.273 49.2702C204.037 49.5626 203.831 49.9138 203.654 50.3238C203.478 50.7192 203.33 51.1513 203.211 51.6202C203.034 52.3088 202.886 52.8876 202.767 53.3565C202.649 53.8107 202.553 54.199 202.479 54.5214C202.419 54.8292 202.375 55.0857 202.345 55.2909C202.315 55.4961 202.3 55.6794 202.3 55.8407C202.299 56.3541 202.408 56.7871 202.627 57.14C202.861 57.4929 203.242 57.6703 203.77 57.6723ZM222.32 58.7766C221.733 58.7744 221.308 58.6188 221.045 58.3098C220.797 58.0008 220.673 57.6557 220.674 57.2744C220.674 57.113 220.696 56.9298 220.741 56.7246C220.785 56.5194 220.822 56.3363 220.852 56.175L221.585 53.2298L217.911 53.2159L216.579 58.4909L214.203 58.4818L216.667 48.6791L214.775 48.672L215.02 47.6829L219.51 46.7979L218.199 52.073L221.895 52.087L223.139 47.0756L225.515 47.0846L222.984 57.1291L223.38 57.3066L225.673 54.8073L226.332 55.2498L224.898 57.0704C224.383 57.7578 223.92 58.218 223.509 58.4511C223.098 58.6696 222.701 58.7781 222.32 58.7766ZM233.009 58.8171C231.938 58.8131 231.155 58.5021 230.657 57.8842C230.175 57.2664 229.935 56.3634 229.937 55.1754C229.939 54.6181 229.991 54.0243 230.096 53.394C230.2 52.7638 230.355 52.141 230.562 51.5258C230.783 50.9106 231.063 50.325 231.402 49.769C231.74 49.1982 232.138 48.7011 232.593 48.2775C233.049 47.8392 233.563 47.4965 234.136 47.2493C234.723 46.9875 235.376 46.858 236.095 46.8607C236.476 46.8622 236.842 46.9076 237.194 46.9969C237.561 47.0716 237.883 47.1975 238.161 47.3746C238.454 47.5517 238.681 47.7872 238.842 48.0811C239.017 48.3751 239.104 48.7348 239.103 49.1601C239.102 49.5415 239.006 49.9371 238.815 50.3471C238.623 50.7423 238.285 51.1151 237.8 51.4652C237.33 51.8154 236.684 52.1137 235.862 52.3599C235.04 52.6061 234.006 52.7708 232.759 52.8541C232.64 53.323 232.544 53.792 232.47 54.261C232.41 54.7155 232.38 55.126 232.379 55.4927C232.376 56.7394 232.858 57.3645 233.826 57.3682C234.486 57.3707 235.11 57.0944 235.698 56.5393C236.301 55.9842 236.867 55.209 237.398 54.2137L238.145 54.5685C237.791 55.2712 237.438 55.8932 237.085 56.4345C236.731 56.9612 236.349 57.4071 235.938 57.7722C235.541 58.1227 235.1 58.385 234.616 58.5592C234.131 58.7334 233.596 58.8193 233.009 58.8171ZM232.937 52.0848C234.404 51.8997 235.446 51.559 236.063 51.0626C236.68 50.5516 236.99 49.9075 236.991 49.1301C236.992 48.7635 236.905 48.4625 236.729 48.2271C236.569 47.9919 236.283 47.8734 235.872 47.8719C235.55 47.8707 235.256 47.9429 234.992 48.0886C234.727 48.2196 234.478 48.4533 234.242 48.7897C234.007 49.1115 233.778 49.5433 233.557 50.0851C233.351 50.627 233.144 51.2936 232.937 52.0848ZM246.494 58.8682C245.262 58.8635 244.317 58.5593 243.658 57.9555C243 57.337 242.672 56.419 242.675 55.2017C242.676 54.3657 242.796 53.4642 243.033 52.4971C243.284 51.53 243.66 50.6294 244.161 49.7953C244.676 48.9613 245.323 48.2744 246.102 47.7347C246.88 47.1803 247.812 46.9051 248.898 46.9092C249.983 46.9134 250.796 47.1218 251.338 47.5345C251.88 47.9472 252.15 48.5056 252.148 49.2096C252.145 50.6176 251.182 51.5893 249.26 52.1246L249.259 52.2786C249.963 52.3693 250.491 52.6133 250.842 53.0106C251.207 53.3934 251.39 53.9147 251.388 54.5747C251.387 55.1761 251.253 55.7402 250.988 56.2672C250.738 56.7796 250.392 57.233 249.951 57.6273C249.51 58.007 248.989 58.313 248.387 58.5454C247.8 58.7632 247.169 58.8708 246.494 58.8682ZM246.628 57.8567C247.127 57.8586 247.567 57.7136 247.949 57.4217C248.346 57.1299 248.626 56.6469 248.789 55.9729C248.848 55.7678 248.9 55.5406 248.944 55.2915C248.989 55.0423 249.011 54.8004 249.012 54.5657C249.013 53.9497 248.868 53.5165 248.575 53.2661C248.297 53.0157 247.828 52.8892 247.168 52.8867C246.919 52.8858 246.633 52.8994 246.31 52.9275C245.987 52.9556 245.679 52.9984 245.385 53.056C245.282 53.4956 245.193 53.9646 245.118 54.463C245.058 54.9614 245.028 55.4453 245.027 55.9146C245.025 56.6186 245.171 57.1178 245.464 57.4123C245.756 57.7067 246.144 57.8549 246.628 57.8567ZM248.675 47.9204C248.353 47.9192 248.052 47.984 247.773 48.115C247.494 48.2459 247.229 48.4723 246.979 48.794C246.744 49.1011 246.508 49.5255 246.272 50.0673C246.051 50.6091 245.83 51.2903 245.608 52.1108C246.928 51.9398 247.911 51.6795 248.557 51.33C249.204 50.9804 249.601 50.5199 249.749 49.9485C249.778 49.7873 249.801 49.648 249.816 49.5307C249.845 49.3988 249.86 49.2449 249.861 49.0689C249.861 48.7169 249.759 48.4378 249.555 48.2317C249.35 48.0256 249.057 47.9218 248.675 47.9204ZM264.121 58.935C263.534 58.9328 263.109 58.7772 262.846 58.4682C262.597 58.1592 262.473 57.8141 262.474 57.4327C262.475 57.2714 262.497 57.0882 262.541 56.883C262.586 56.6778 262.623 56.4946 262.653 56.3334L263.385 53.3882L259.711 53.3743L258.379 58.6492L256.003 58.6402L258.468 48.8375L256.576 48.8303L256.82 47.8413L261.31 46.9563L260 52.2313L263.696 52.2453L264.94 47.234L267.315 47.243L264.784 57.2875L265.18 57.465L267.474 54.9657L268.133 55.4082L266.699 57.2288C266.184 57.9161 265.721 58.3764 265.309 58.6095C264.898 58.8279 264.502 58.9364 264.121 58.935ZM274.04 58.9726C273.35 58.97 272.845 58.7847 272.523 58.4168C272.216 58.0343 272.063 57.5424 272.064 56.9411C272.065 56.7211 272.08 56.4938 272.11 56.2593C272.154 56.0248 272.214 55.783 272.288 55.5339L274.129 48.8969L272.215 48.8896L272.459 47.9005L277.059 47.0159L274.486 56.2243C274.442 56.4001 274.419 56.5613 274.419 56.708C274.418 57.1187 274.608 57.3247 274.989 57.3262C275.341 57.3275 275.738 57.1457 276.179 56.7807C276.634 56.4011 277.083 55.8968 277.524 55.2678C277.966 54.6388 278.378 53.907 278.761 53.0724C279.159 52.2233 279.477 51.3298 279.713 50.392L280.49 47.2929L282.866 47.302L280.313 57.3463L280.709 57.5238L283.003 55.0245L283.662 55.467L282.228 57.2876C281.698 57.9896 281.235 58.4498 280.838 58.6683C280.442 58.8868 280.068 58.9954 279.716 58.9941C279.158 58.992 278.763 58.8438 278.529 58.5496C278.309 58.2408 278.2 57.903 278.201 57.5363C278.201 57.3457 278.224 57.1404 278.268 56.9206C278.313 56.7008 278.357 56.5103 278.402 56.3491L278.779 54.8765L278.559 54.8097C278.265 55.3512 277.963 55.8781 277.654 56.3903C277.344 56.8878 277.006 57.3265 276.639 57.7064C276.286 58.0864 275.896 58.3929 275.471 58.626C275.045 58.8591 274.568 58.9746 274.04 58.9726ZM294.433 59.0499C293.963 59.0481 293.59 58.9293 293.312 58.6936C293.048 58.4579 292.88 58.0686 292.808 57.5257L292.201 53.5194L292.07 53.4309L290.838 53.4262L289.483 58.7671L287.107 58.7581L289.572 48.9554L287.68 48.9482L287.924 47.9591L292.436 47.0742L291.104 52.3272L291.742 52.3296C291.918 52.3303 292.094 52.3016 292.27 52.2436C292.461 52.171 292.652 52.0471 292.843 51.8718C293.034 51.6818 293.233 51.4259 293.439 51.104C293.66 50.7822 293.895 50.3724 294.146 49.8747C294.411 49.3477 294.661 48.9087 294.897 48.5575C295.147 48.1918 295.397 47.8994 295.647 47.6804C295.897 47.4613 296.154 47.3083 296.418 47.2213C296.697 47.1344 297.005 47.0915 297.342 47.0928C297.87 47.0948 298.288 47.2357 298.595 47.5156C298.917 47.7954 299.078 48.17 299.077 48.6394C299.076 49.0794 298.928 49.4675 298.634 49.8037C298.354 50.14 297.98 50.3072 297.511 50.3055C297.144 50.3041 296.844 50.2003 296.609 49.994C296.39 49.7879 296.281 49.5161 296.281 49.1788C296.282 48.9735 296.319 48.7829 296.393 48.6072C296.466 48.4168 296.562 48.2632 296.68 48.1463L296.57 48.0139C296.32 48.1743 296.07 48.4227 295.82 48.759C295.57 49.0954 295.254 49.6369 294.871 50.3835C294.664 50.764 294.48 51.086 294.318 51.3494C294.171 51.5981 294.024 51.8029 293.877 51.9637C293.745 52.1245 293.605 52.256 293.458 52.3581C293.326 52.4456 293.186 52.5184 293.04 52.5765L293.039 52.6865C293.538 52.7618 293.904 52.9391 294.138 53.2187C294.387 53.4836 294.562 53.9683 294.663 54.6727L295.074 57.4023L295.448 57.4477L297.323 55.3868L297.96 55.8952L296.813 57.3429C296.548 57.6792 296.313 57.957 296.107 58.1762C295.901 58.3954 295.702 58.5707 295.512 58.7019C295.335 58.8333 295.159 58.9206 294.983 58.9639C294.807 59.0219 294.623 59.0506 294.433 59.0499Z" fill="white" fill-opacity="0.89"/>
</g>
<defs>
<filter id="filter0_f" x="0" y="0" width="391" height="102" filterUnits="userSpaceOnUse" color-interpolation-filters="sRGB">
<feFlood flood-opacity="0" result="BackgroundImageFix"/>
<feBlend mode="normal" in="SourceGraphic" in2="BackgroundImageFix" result="shape"/>
<feGaussianBlur stdDeviation="10" result="effect1_foregroundBlur"/>
</filter>
<filter id="filter1_d" x="69.738" y="25.7339" width="249.339" height="57.3159" filterUnits="userSpaceOnUse" color-interpolation-filters="sRGB">
<feFlood flood-opacity="0" result="BackgroundImageFix"/>
<feColorMatrix in="SourceAlpha" type="matrix" values="0 0 0 0 0 0 0 0 0 0 0 0 0 0 0 0 0 0 127 0"/>
<feOffset dy="4"/>
<feGaussianBlur stdDeviation="10"/>
<feColorMatrix type="matrix" values="0 0 0 0 0 0 0 0 0 0 0 0 0 0 0 0 0 0 0.5 0"/>
<feBlend mode="normal" in2="BackgroundImageFix" result="effect1_dropShadow"/>
<feBlend mode="normal" in="SourceGraphic" in2="effect1_dropShadow" result="shape"/>
</filter>
</defs>
</svg>
